<mxfile host="app.diagrams.net" modified="2022-08-04T03:48:26.712Z" agent="5.0 (Windows NT 10.0; Win64; x64) AppleWebKit/537.36 (KHTML, like Gecko) Chrome/103.0.0.0 Safari/537.36" etag="DQDzBcmtmd56z-J9H_q3" version="20.0.4" type="github">
  <diagram name="Page-1" id="bd83a815-5ea8-2e97-e5ec-87c9f400f2fa">
    <mxGraphModel dx="1550" dy="843" grid="1" gridSize="10" guides="1" tooltips="1" connect="1" arrows="1" fold="1" page="1" pageScale="1.5" pageWidth="1169" pageHeight="826" background="none" math="0" shadow="0">
      <root>
        <mxCell id="0" style=";html=1;" />
        <mxCell id="1" style=";html=1;" parent="0" />
        <mxCell id="1516e18e63f93b96-4" value="" style="whiteSpace=wrap;html=1;rounded=0;shadow=0;strokeWidth=1;fontSize=14" parent="1" vertex="1">
          <mxGeometry x="1400" y="1140" width="60" height="50" as="geometry" />
        </mxCell>
        <mxCell id="1516e18e63f93b96-5" value="Relation 8" style="whiteSpace=wrap;html=1;rounded=0;shadow=0;strokeWidth=1;fontSize=14" parent="1" vertex="1">
          <mxGeometry x="1460" y="1140" width="210" height="50" as="geometry" />
        </mxCell>
        <mxCell id="1516e18e63f93b96-12" value="" style="rhombus;whiteSpace=wrap;html=1;rounded=0;shadow=0;strokeWidth=3;fillColor=#000000;fontSize=14" parent="1" vertex="1">
          <mxGeometry x="1415" y="1150" width="30" height="30" as="geometry" />
        </mxCell>
        <mxCell id="1516e18e63f93b96-14" value="" style="whiteSpace=wrap;html=1;rounded=0;shadow=0;strokeWidth=1;fontSize=14" parent="1" vertex="1">
          <mxGeometry x="1400" y="1090" width="60" height="50" as="geometry" />
        </mxCell>
        <mxCell id="1516e18e63f93b96-15" value="Relation 7" style="whiteSpace=wrap;html=1;rounded=0;shadow=0;strokeWidth=1;fontSize=14" parent="1" vertex="1">
          <mxGeometry x="1460" y="1090" width="210" height="50" as="geometry" />
        </mxCell>
        <mxCell id="1516e18e63f93b96-18" value="" style="whiteSpace=wrap;html=1;rounded=0;shadow=0;strokeWidth=1;fontSize=14" parent="1" vertex="1">
          <mxGeometry x="1400" y="1040" width="60" height="50" as="geometry" />
        </mxCell>
        <mxCell id="1516e18e63f93b96-19" value="Relation 6" style="whiteSpace=wrap;html=1;rounded=0;shadow=0;strokeWidth=1;fontSize=14" parent="1" vertex="1">
          <mxGeometry x="1460" y="1040" width="210" height="50" as="geometry" />
        </mxCell>
        <mxCell id="1516e18e63f93b96-20" value="" style="whiteSpace=wrap;html=1;rounded=0;shadow=0;strokeWidth=1;fontSize=14" parent="1" vertex="1">
          <mxGeometry x="1400" y="990" width="60" height="50" as="geometry" />
        </mxCell>
        <mxCell id="1516e18e63f93b96-21" value="Relation 5" style="whiteSpace=wrap;html=1;rounded=0;shadow=0;strokeWidth=1;fontSize=14" parent="1" vertex="1">
          <mxGeometry x="1460" y="990" width="210" height="50" as="geometry" />
        </mxCell>
        <mxCell id="1516e18e63f93b96-22" value="" style="whiteSpace=wrap;html=1;rounded=0;shadow=0;strokeWidth=1;fontSize=14" parent="1" vertex="1">
          <mxGeometry x="1400" y="940" width="60" height="50" as="geometry" />
        </mxCell>
        <mxCell id="1516e18e63f93b96-23" value="Relation 4" style="whiteSpace=wrap;html=1;rounded=0;shadow=0;strokeWidth=1;fontSize=14" parent="1" vertex="1">
          <mxGeometry x="1460" y="940" width="210" height="50" as="geometry" />
        </mxCell>
        <mxCell id="1516e18e63f93b96-24" value="" style="whiteSpace=wrap;html=1;rounded=0;shadow=0;strokeWidth=1;fontSize=14" parent="1" vertex="1">
          <mxGeometry x="1400" y="890" width="60" height="50" as="geometry" />
        </mxCell>
        <mxCell id="1516e18e63f93b96-25" value="Relation 3" style="whiteSpace=wrap;html=1;rounded=0;shadow=0;strokeWidth=1;fontSize=14" parent="1" vertex="1">
          <mxGeometry x="1460" y="890" width="210" height="50" as="geometry" />
        </mxCell>
        <mxCell id="1516e18e63f93b96-26" value="" style="whiteSpace=wrap;html=1;rounded=0;shadow=0;strokeWidth=1;fontSize=14" parent="1" vertex="1">
          <mxGeometry x="1400" y="840" width="60" height="50" as="geometry" />
        </mxCell>
        <mxCell id="1516e18e63f93b96-27" value="Relation 2" style="whiteSpace=wrap;html=1;rounded=0;shadow=0;strokeWidth=1;fontSize=14" parent="1" vertex="1">
          <mxGeometry x="1460" y="840" width="210" height="50" as="geometry" />
        </mxCell>
        <mxCell id="1516e18e63f93b96-28" value="" style="whiteSpace=wrap;html=1;rounded=0;shadow=0;strokeWidth=1;fontSize=14" parent="1" vertex="1">
          <mxGeometry x="1400" y="790" width="60" height="50" as="geometry" />
        </mxCell>
        <mxCell id="1516e18e63f93b96-29" value="Relation 1" style="whiteSpace=wrap;html=1;rounded=0;shadow=0;strokeWidth=1;fontSize=14" parent="1" vertex="1">
          <mxGeometry x="1460" y="790" width="210" height="50" as="geometry" />
        </mxCell>
        <object label="&lt;table border=&quot;1&quot; width=&quot;100%&quot; cellpadding=&quot;4&quot; style=&quot;width: 100% ; height: 100% ; border-collapse: collapse&quot;&gt;&lt;tbody&gt;&lt;tr style=&quot;background-color: #a7c942 ; color: #ffffff ; border: 1px solid #98bf21&quot;&gt;&lt;th&gt;Tasks&lt;/th&gt;&lt;th&gt;&amp;nbsp;1&lt;/th&gt;&lt;th&gt;&amp;nbsp;2&lt;/th&gt;&lt;th&gt;&amp;nbsp;3&lt;/th&gt;&lt;th&gt;4&lt;/th&gt;&lt;th&gt;5&lt;/th&gt;&lt;/tr&gt;&lt;tr style=&quot;border: 1px solid #98bf21&quot;&gt;&lt;td style=&quot;text-align: right; background-color: rgb(167, 201, 66); color: rgb(255, 255, 255); border: 1px solid rgb(152, 191, 33);&quot;&gt;1&lt;/td&gt;&lt;td&gt;&lt;/td&gt;&lt;td&gt;&lt;/td&gt;&lt;td&gt;&lt;br&gt;&lt;/td&gt;&lt;td&gt;&lt;br&gt;&lt;/td&gt;&lt;td&gt;&lt;br&gt;&lt;/td&gt;&lt;/tr&gt;&lt;tr style=&quot;background-color: #eaf2d3 ; border: 1px solid #98bf21&quot;&gt;&lt;td style=&quot;text-align: right; background-color: rgb(167, 201, 66); color: rgb(255, 255, 255); border: 1px solid rgb(152, 191, 33);&quot;&gt;2&lt;/td&gt;&lt;td&gt;&lt;/td&gt;&lt;td&gt;&lt;/td&gt;&lt;td&gt;&lt;br&gt;&lt;/td&gt;&lt;td&gt;&lt;br&gt;&lt;/td&gt;&lt;td&gt;&lt;br&gt;&lt;/td&gt;&lt;/tr&gt;&lt;tr style=&quot;border: 1px solid #98bf21&quot;&gt;&lt;td style=&quot;text-align: right; background-color: rgb(167, 201, 66); color: rgb(255, 255, 255); border: 1px solid rgb(152, 191, 33);&quot;&gt;3&lt;/td&gt;&lt;td&gt;&lt;/td&gt;&lt;td&gt;&lt;/td&gt;&lt;td&gt;&lt;br&gt;&lt;/td&gt;&lt;td&gt;&lt;br&gt;&lt;/td&gt;&lt;td&gt;&lt;br&gt;&lt;/td&gt;&lt;/tr&gt;&lt;tr style=&quot;background-color: #eaf2d3 ; border: 1px solid #98bf21&quot;&gt;&lt;td style=&quot;text-align: right; background-color: rgb(167, 201, 66); color: rgb(255, 255, 255); border: 1px solid rgb(152, 191, 33);&quot;&gt;&amp;nbsp;4&lt;/td&gt;&lt;td&gt;&lt;/td&gt;&lt;td&gt;&lt;/td&gt;&lt;td&gt;&lt;br&gt;&lt;/td&gt;&lt;td&gt;&lt;br&gt;&lt;/td&gt;&lt;td&gt;&lt;br&gt;&lt;/td&gt;&lt;/tr&gt;&lt;tr style=&quot;border: 1px solid #98bf21&quot;&gt;&lt;td style=&quot;text-align: right; background-color: rgb(167, 201, 66); color: rgb(255, 255, 255); border: 1px solid rgb(152, 191, 33);&quot;&gt;5&lt;br&gt;&lt;/td&gt;&lt;td style=&quot;text-align: right;&quot;&gt;&lt;br&gt;&lt;/td&gt;&lt;td style=&quot;text-align: right;&quot;&gt;&lt;br&gt;&lt;/td&gt;&lt;td style=&quot;text-align: right;&quot;&gt;&lt;br&gt;&lt;/td&gt;&lt;td style=&quot;text-align: right;&quot;&gt;&lt;br&gt;&lt;/td&gt;&lt;td style=&quot;text-align: right;&quot;&gt;&lt;br&gt;&lt;/td&gt;&lt;/tr&gt;&lt;tr style=&quot;background-color: #eaf2d3 ; border: 1px solid #98bf21&quot;&gt;&lt;td style=&quot;text-align: right; background-color: rgb(167, 201, 66); color: rgb(255, 255, 255); border: 1px solid rgb(152, 191, 33);&quot;&gt;6&lt;br&gt;&lt;/td&gt;&lt;td style=&quot;text-align: right;&quot;&gt;&lt;br&gt;&lt;/td&gt;&lt;td style=&quot;text-align: right;&quot;&gt;&lt;br&gt;&lt;/td&gt;&lt;td style=&quot;text-align: right;&quot;&gt;&lt;br&gt;&lt;/td&gt;&lt;td style=&quot;text-align: right;&quot;&gt;&lt;br&gt;&lt;/td&gt;&lt;td style=&quot;text-align: right;&quot;&gt;&lt;br&gt;&lt;/td&gt;&lt;/tr&gt;&lt;tr style=&quot;border: 1px solid #98bf21&quot;&gt;&lt;td style=&quot;text-align: right; background-color: rgb(167, 201, 66); color: rgb(255, 255, 255); border: 1px solid rgb(152, 191, 33);&quot;&gt;&amp;nbsp;7&lt;br&gt;&lt;/td&gt;&lt;td style=&quot;text-align: right;&quot;&gt;&lt;br&gt;&lt;/td&gt;&lt;td style=&quot;text-align: right;&quot;&gt;&lt;br&gt;&lt;/td&gt;&lt;td style=&quot;text-align: right;&quot;&gt;&lt;br&gt;&lt;/td&gt;&lt;td style=&quot;text-align: right;&quot;&gt;&lt;br&gt;&lt;/td&gt;&lt;td style=&quot;text-align: right;&quot;&gt;&lt;br&gt;&lt;/td&gt;&lt;/tr&gt;&lt;tr style=&quot;background-color: #eaf2d3 ; border: 1px solid #98bf21&quot;&gt;&lt;td style=&quot;text-align: right; background-color: rgb(167, 201, 66); color: rgb(255, 255, 255); border: 1px solid rgb(152, 191, 33);&quot;&gt;8&lt;br&gt;&lt;/td&gt;&lt;td style=&quot;text-align: right;&quot;&gt;&lt;br&gt;&lt;/td&gt;&lt;td style=&quot;text-align: right;&quot;&gt;&lt;br&gt;&lt;/td&gt;&lt;td style=&quot;text-align: right;&quot;&gt;&lt;br&gt;&lt;/td&gt;&lt;td style=&quot;text-align: right;&quot;&gt;&lt;br&gt;&lt;/td&gt;&lt;td style=&quot;text-align: right;&quot;&gt;&lt;br&gt;&lt;/td&gt;&lt;/tr&gt;&lt;tr style=&quot;border: 1px solid #98bf21&quot;&gt;&lt;td style=&quot;text-align: right; background-color: rgb(167, 201, 66); color: rgb(255, 255, 255); border: 1px solid rgb(152, 191, 33);&quot;&gt;9&lt;br&gt;&lt;/td&gt;&lt;td style=&quot;text-align: right;&quot;&gt;&lt;br&gt;&lt;/td&gt;&lt;td style=&quot;text-align: right;&quot;&gt;&lt;br&gt;&lt;/td&gt;&lt;td style=&quot;text-align: right;&quot;&gt;&lt;br&gt;&lt;/td&gt;&lt;td style=&quot;text-align: right;&quot;&gt;&lt;br&gt;&lt;/td&gt;&lt;td style=&quot;text-align: right;&quot;&gt;&lt;br&gt;&lt;/td&gt;&lt;/tr&gt;&lt;tr style=&quot;background-color: #eaf2d3 ; border: 1px solid #98bf21&quot;&gt;&lt;td style=&quot;text-align: right; background-color: rgb(167, 201, 66); color: rgb(255, 255, 255); border: 1px solid rgb(152, 191, 33);&quot;&gt;10&lt;br&gt;&lt;/td&gt;&lt;td&gt;&lt;br&gt;&lt;/td&gt;&lt;td&gt;&lt;br&gt;&lt;/td&gt;&lt;td&gt;&lt;br&gt;&lt;/td&gt;&lt;td&gt;&lt;br&gt;&lt;/td&gt;&lt;td&gt;&lt;br&gt;&lt;/td&gt;&lt;/tr&gt;&lt;/tbody&gt;&lt;/table&gt;" Y="" id="1516e18e63f93b96-1">
          <mxCell style="text;html=1;strokeColor=#c0c0c0;fillColor=#ffffff;overflow=fill;rounded=0;shadow=1;fontSize=14;fontColor=#000000;deletable=1;resizable=1;fixedWidth=0;autosize=1;imageAspect=1;" parent="1" vertex="1">
            <mxGeometry x="540" width="630" height="610" as="geometry" />
          </mxCell>
        </object>
        <mxCell id="1516e18e63f93b96-6" value="" style="ellipse;whiteSpace=wrap;html=1;rounded=0;shadow=0;strokeWidth=3;fontSize=14" parent="1" vertex="1">
          <mxGeometry x="1415" y="800" width="30" height="30" as="geometry" />
        </mxCell>
        <mxCell id="1516e18e63f93b96-7" value="" style="ellipse;whiteSpace=wrap;html=1;rounded=0;shadow=0;strokeWidth=3;fontSize=14;fillColor=#000000;" parent="1" vertex="1">
          <mxGeometry x="810" y="420" width="10" height="10" as="geometry" />
        </mxCell>
        <mxCell id="1516e18e63f93b96-8" value="" style="triangle;whiteSpace=wrap;html=1;rounded=0;shadow=0;strokeWidth=3;fillColor=#000000;fontSize=14;direction=north;" parent="1" vertex="1">
          <mxGeometry x="1415" y="950" width="30" height="30" as="geometry" />
        </mxCell>
        <mxCell id="1516e18e63f93b96-9" value="" style="triangle;whiteSpace=wrap;html=1;rounded=0;shadow=0;strokeWidth=3;fontSize=14;direction=north;" parent="1" vertex="1">
          <mxGeometry x="1415" y="900" width="30" height="30" as="geometry" />
        </mxCell>
        <mxCell id="1516e18e63f93b96-10" value="" style="whiteSpace=wrap;html=1;rounded=0;shadow=0;strokeWidth=3;fontSize=14" parent="1" vertex="1">
          <mxGeometry x="1415" y="1000" width="30" height="30" as="geometry" />
        </mxCell>
        <mxCell id="1516e18e63f93b96-11" value="" style="whiteSpace=wrap;html=1;rounded=0;shadow=0;strokeWidth=3;fillColor=#000000;fontSize=14" parent="1" vertex="1">
          <mxGeometry x="1415" y="1050" width="30" height="30" as="geometry" />
        </mxCell>
        <mxCell id="1516e18e63f93b96-13" value="" style="rhombus;whiteSpace=wrap;html=1;rounded=0;shadow=0;strokeWidth=3;fontSize=14" parent="1" vertex="1">
          <mxGeometry x="1415" y="1100" width="30" height="30" as="geometry" />
        </mxCell>
        <mxCell id="Y8sGtOeTiqW53uMvUCJc-3" value="" style="ellipse;whiteSpace=wrap;html=1;rounded=0;shadow=0;strokeWidth=3;fontSize=14;fillColor=#000000;" vertex="1" parent="1">
          <mxGeometry x="910" y="420" width="10" height="10" as="geometry" />
        </mxCell>
        <mxCell id="Y8sGtOeTiqW53uMvUCJc-4" value="" style="ellipse;whiteSpace=wrap;html=1;rounded=0;shadow=0;strokeWidth=3;fontSize=14;fillColor=#000000;" vertex="1" parent="1">
          <mxGeometry x="900" y="360" width="10" height="10" as="geometry" />
        </mxCell>
        <mxCell id="Y8sGtOeTiqW53uMvUCJc-5" value="" style="ellipse;whiteSpace=wrap;html=1;rounded=0;shadow=0;strokeWidth=3;fontSize=14;fillColor=#000000;" vertex="1" parent="1">
          <mxGeometry x="970" y="360" width="10" height="10" as="geometry" />
        </mxCell>
        <mxCell id="Y8sGtOeTiqW53uMvUCJc-6" value="" style="ellipse;whiteSpace=wrap;html=1;rounded=0;shadow=0;strokeWidth=3;fontSize=14;fillColor=#000000;" vertex="1" parent="1">
          <mxGeometry x="840" y="520" width="10" height="10" as="geometry" />
        </mxCell>
        <mxCell id="Y8sGtOeTiqW53uMvUCJc-7" value="" style="ellipse;whiteSpace=wrap;html=1;rounded=0;shadow=0;strokeWidth=3;fontSize=14;fillColor=#000000;" vertex="1" parent="1">
          <mxGeometry x="1040" y="420" width="10" height="10" as="geometry" />
        </mxCell>
        <mxCell id="Y8sGtOeTiqW53uMvUCJc-8" value="" style="ellipse;whiteSpace=wrap;html=1;rounded=0;shadow=0;strokeWidth=3;fontSize=14;fillColor=#000000;" vertex="1" parent="1">
          <mxGeometry x="910" y="480" width="10" height="10" as="geometry" />
        </mxCell>
        <mxCell id="Y8sGtOeTiqW53uMvUCJc-9" value="" style="ellipse;whiteSpace=wrap;html=1;rounded=0;shadow=0;strokeWidth=3;fontSize=14;fillColor=#000000;" vertex="1" parent="1">
          <mxGeometry x="970" y="480" width="10" height="10" as="geometry" />
        </mxCell>
        <mxCell id="Y8sGtOeTiqW53uMvUCJc-13" value="" style="ellipse;whiteSpace=wrap;html=1;rounded=0;shadow=0;strokeWidth=3;fontSize=14;fillColor=#000000;" vertex="1" parent="1">
          <mxGeometry x="910" y="290" width="10" height="10" as="geometry" />
        </mxCell>
        <mxCell id="Y8sGtOeTiqW53uMvUCJc-14" value="" style="ellipse;whiteSpace=wrap;html=1;rounded=0;shadow=0;strokeWidth=3;fontSize=14;fillColor=#000000;" vertex="1" parent="1">
          <mxGeometry x="1010" y="290" width="10" height="10" as="geometry" />
        </mxCell>
        <mxCell id="Y8sGtOeTiqW53uMvUCJc-15" value="" style="ellipse;whiteSpace=wrap;html=1;rounded=0;shadow=0;strokeWidth=3;fontSize=14;fillColor=#000000;" vertex="1" parent="1">
          <mxGeometry x="1000" y="220" width="10" height="10" as="geometry" />
        </mxCell>
        <mxCell id="Y8sGtOeTiqW53uMvUCJc-16" value="" style="ellipse;whiteSpace=wrap;html=1;rounded=0;shadow=0;strokeWidth=3;fontSize=14;fillColor=#000000;" vertex="1" parent="1">
          <mxGeometry x="1070" y="230" width="10" height="10" as="geometry" />
        </mxCell>
        <mxCell id="Y8sGtOeTiqW53uMvUCJc-17" value="" style="ellipse;whiteSpace=wrap;html=1;rounded=0;shadow=0;strokeWidth=3;fontSize=14;fillColor=#000000;" vertex="1" parent="1">
          <mxGeometry x="940" y="390" width="10" height="10" as="geometry" />
        </mxCell>
        <mxCell id="Y8sGtOeTiqW53uMvUCJc-18" value="" style="ellipse;whiteSpace=wrap;html=1;rounded=0;shadow=0;strokeWidth=3;fontSize=14;fillColor=#FF3333;strokeColor=#FF3333;" vertex="1" parent="1">
          <mxGeometry x="940" y="320" width="10" height="10" as="geometry" />
        </mxCell>
        <mxCell id="Y8sGtOeTiqW53uMvUCJc-19" value="" style="ellipse;whiteSpace=wrap;html=1;rounded=0;shadow=0;strokeWidth=3;fontSize=14;fillColor=#000000;" vertex="1" parent="1">
          <mxGeometry x="1010" y="350" width="10" height="10" as="geometry" />
        </mxCell>
        <mxCell id="Y8sGtOeTiqW53uMvUCJc-20" value="" style="ellipse;whiteSpace=wrap;html=1;rounded=0;shadow=0;strokeWidth=3;fontSize=14;fillColor=#000000;" vertex="1" parent="1">
          <mxGeometry x="1070" y="350" width="10" height="10" as="geometry" />
        </mxCell>
        <mxCell id="Y8sGtOeTiqW53uMvUCJc-21" value="" style="ellipse;whiteSpace=wrap;html=1;rounded=0;shadow=0;strokeWidth=3;fontSize=14;fillColor=#000000;" vertex="1" parent="1">
          <mxGeometry x="795" y="260" width="10" height="10" as="geometry" />
        </mxCell>
        <mxCell id="Y8sGtOeTiqW53uMvUCJc-22" value="" style="ellipse;whiteSpace=wrap;html=1;rounded=0;shadow=0;strokeWidth=3;fontSize=14;fillColor=#000000;" vertex="1" parent="1">
          <mxGeometry x="785" y="200" width="10" height="10" as="geometry" />
        </mxCell>
        <mxCell id="Y8sGtOeTiqW53uMvUCJc-23" value="" style="ellipse;whiteSpace=wrap;html=1;rounded=0;shadow=0;strokeWidth=3;fontSize=14;fillColor=#000000;" vertex="1" parent="1">
          <mxGeometry x="855" y="200" width="10" height="10" as="geometry" />
        </mxCell>
        <mxCell id="Y8sGtOeTiqW53uMvUCJc-24" value="" style="ellipse;whiteSpace=wrap;html=1;rounded=0;shadow=0;strokeWidth=3;fontSize=14;fillColor=#000000;" vertex="1" parent="1">
          <mxGeometry x="795" y="320" width="10" height="10" as="geometry" />
        </mxCell>
        <mxCell id="Y8sGtOeTiqW53uMvUCJc-25" value="" style="ellipse;whiteSpace=wrap;html=1;rounded=0;shadow=0;strokeWidth=3;fontSize=14;fillColor=#000000;" vertex="1" parent="1">
          <mxGeometry x="855" y="320" width="10" height="10" as="geometry" />
        </mxCell>
        <mxCell id="Y8sGtOeTiqW53uMvUCJc-26" value="" style="ellipse;whiteSpace=wrap;html=1;rounded=0;shadow=0;strokeWidth=3;fontSize=14;fillColor=#000000;" vertex="1" parent="1">
          <mxGeometry x="830" y="220" width="10" height="10" as="geometry" />
        </mxCell>
        <mxCell id="Y8sGtOeTiqW53uMvUCJc-27" value="" style="ellipse;whiteSpace=wrap;html=1;rounded=0;shadow=0;strokeWidth=3;fontSize=14;fillColor=#000000;" vertex="1" parent="1">
          <mxGeometry x="895" y="190" width="10" height="10" as="geometry" />
        </mxCell>
        <mxCell id="Y8sGtOeTiqW53uMvUCJc-30" value="" style="rounded=1;whiteSpace=wrap;html=1;strokeColor=#FF3333;fillColor=none;strokeWidth=3;" vertex="1" parent="1">
          <mxGeometry x="850" y="220" width="240" height="160" as="geometry" />
        </mxCell>
      </root>
    </mxGraphModel>
  </diagram>
</mxfile>
